<svg xmlns="http://www.w3.org/2000/svg" width="40" height="45.714" viewBox="0 0 40 45.714">
  <path id="book" d="M8.571,0A8.574,8.574,0,0,0,0,8.571V37.143a8.574,8.574,0,0,0,8.571,8.571H37.143a2.857,2.857,0,0,0,0-5.714V34.286A2.854,2.854,0,0,0,40,31.429V2.857A2.854,2.854,0,0,0,37.143,0H8.571Zm0,34.286H31.429V40H8.571a2.857,2.857,0,0,1,0-5.714Zm2.857-21.429a1.433,1.433,0,0,1,1.429-1.429H30a1.429,1.429,0,1,1,0,2.857H12.857A1.433,1.433,0,0,1,11.429,12.857Zm1.429,4.286H30A1.429,1.429,0,0,1,30,20H12.857a1.429,1.429,0,1,1,0-2.857Z" fill="#101235"/>
</svg>
