<svg xmlns="http://www.w3.org/2000/svg" width="40" height="35" viewBox="0 0 40 35">
  <path id="car" d="M10.562,38.672,8.523,44.5H31.477l-2.039-5.828A2.5,2.5,0,0,0,27.078,37H12.922A2.5,2.5,0,0,0,10.562,38.672Zm-7.469,6.2,2.75-7.852A7.5,7.5,0,0,1,12.922,32H27.078a7.5,7.5,0,0,1,7.078,5.023l2.75,7.852A5.009,5.009,0,0,1,40,49.5v15A2.5,2.5,0,0,1,37.5,67H35a2.5,2.5,0,0,1-2.5-2.5V60.75H7.5V64.5A2.5,2.5,0,0,1,5,67H2.5A2.5,2.5,0,0,1,0,64.5v-15A5.009,5.009,0,0,1,3.094,44.875ZM10,52a2.5,2.5,0,1,0-2.5,2.5A2.5,2.5,0,0,0,10,52Zm22.5,2.5A2.5,2.5,0,1,0,30,52,2.5,2.5,0,0,0,32.5,54.5Z" transform="translate(0 -32)" fill="#101235"/>
</svg>
