<svg xmlns="http://www.w3.org/2000/svg" width="40.156" height="36" viewBox="0 0 40.156 36">
  <path id="cart-shopping" d="M0,1.688A1.683,1.683,0,0,1,1.688,0h3.2A3.938,3.938,0,0,1,8.445,2.25h28.9a2.811,2.811,0,0,1,2.714,3.544L37.174,16.5a5.07,5.07,0,0,1-4.887,3.748H12l.38,2a1.694,1.694,0,0,0,1.659,1.371H34.313a1.688,1.688,0,0,1,0,3.375H14.041A5.057,5.057,0,0,1,9.07,22.887L5.442,3.832a.559.559,0,0,0-.555-.457h-3.2A1.683,1.683,0,0,1,0,1.688ZM9,32.625A3.375,3.375,0,1,1,12.375,36,3.375,3.375,0,0,1,9,32.625ZM32.625,29.25a3.375,3.375,0,1,1-3.375,3.375A3.375,3.375,0,0,1,32.625,29.25Z" fill="#f5f6fa"/>
</svg>
