<svg xmlns="http://www.w3.org/2000/svg" xmlns:xlink="http://www.w3.org/1999/xlink" width="62" height="62" viewBox="0 0 62 62">
  <defs>
    <filter id="Ellipse_4" x="0" y="0" width="62" height="62" filterUnits="userSpaceOnUse">
      <feOffset dy="3" input="SourceAlpha"/>
      <feGaussianBlur stdDeviation="3" result="blur"/>
      <feFlood flood-opacity="0.259"/>
      <feComposite operator="in" in2="blur"/>
      <feComposite in="SourceGraphic"/>
    </filter>
    <radialGradient id="radial-gradient" cx="0.266" cy="1.077" r="0.991" gradientTransform="translate(-2.918 5.666) rotate(-90) scale(1 0.93)" gradientUnits="objectBoundingBox">
      <stop offset="0" stop-color="#fd5"/>
      <stop offset="0.1" stop-color="#fd5"/>
      <stop offset="0.5" stop-color="#ff543e"/>
      <stop offset="1" stop-color="#c837ab"/>
    </radialGradient>
    <radialGradient id="radial-gradient-2" cx="-0.168" cy="0.072" r="0.443" gradientTransform="matrix(0.196, 0.981, -4.042, 0.809, 15.634, -0.42)" gradientUnits="objectBoundingBox">
      <stop offset="0" stop-color="#3771c8"/>
      <stop offset="0.128" stop-color="#3771c8"/>
      <stop offset="1" stop-color="#60f" stop-opacity="0"/>
    </radialGradient>
  </defs>
  <g id="Group_18" data-name="Group 18" transform="translate(-108 -955)">
    <g transform="matrix(1, 0, 0, 1, 108, 955)" filter="url(#Ellipse_4)">
      <circle id="Ellipse_4-2" data-name="Ellipse 4" cx="22" cy="22" r="22" transform="translate(9 6)" fill="#fff"/>
    </g>
    <g id="instagram-color-icon" transform="translate(129.593 973.596)">
      <path id="Path_5" data-name="Path 5" d="M8.406,0C4.9,0,3.87,0,3.67.02A4.171,4.171,0,0,0,2.013.437a3.356,3.356,0,0,0-.966.707A3.608,3.608,0,0,0,.074,3.188,15.171,15.171,0,0,0,0,5.669C0,6.338,0,7.219,0,8.4c0,3.507,0,4.532.021,4.731a4.222,4.222,0,0,0,.4,1.624,3.541,3.541,0,0,0,2.3,1.875,5.964,5.964,0,0,0,1.221.162c.208.009,2.33.016,4.453.016s4.246,0,4.449-.013A5.743,5.743,0,0,0,14.1,16.63a3.52,3.52,0,0,0,2.3-1.879,4.153,4.153,0,0,0,.4-1.593c.011-.145.016-2.454.016-4.76s-.005-4.611-.017-4.756a4.106,4.106,0,0,0-.4-1.609,3.332,3.332,0,0,0-.72-.986A3.629,3.629,0,0,0,13.622.077,15.149,15.149,0,0,0,11.142,0Z" transform="translate(1.004 1)" fill="url(#radial-gradient)"/>
      <path id="Path_6" data-name="Path 6" d="M8.406,0C4.9,0,3.87,0,3.67.02A4.171,4.171,0,0,0,2.013.437a3.356,3.356,0,0,0-.966.707A3.608,3.608,0,0,0,.074,3.188,15.171,15.171,0,0,0,0,5.669C0,6.338,0,7.219,0,8.4c0,3.507,0,4.532.021,4.731a4.222,4.222,0,0,0,.4,1.624,3.541,3.541,0,0,0,2.3,1.875,5.964,5.964,0,0,0,1.221.162c.208.009,2.33.016,4.453.016s4.246,0,4.449-.013A5.743,5.743,0,0,0,14.1,16.63a3.52,3.52,0,0,0,2.3-1.879,4.153,4.153,0,0,0,.4-1.593c.011-.145.016-2.454.016-4.76s-.005-4.611-.017-4.756a4.106,4.106,0,0,0-.4-1.609,3.332,3.332,0,0,0-.72-.986A3.629,3.629,0,0,0,13.622.077,15.149,15.149,0,0,0,11.142,0Z" transform="translate(1.004 1)" fill="url(#radial-gradient-2)"/>
      <path id="Path_7" data-name="Path 7" d="M24.207,18c-1.686,0-1.9.007-2.559.037a4.555,4.555,0,0,0-1.506.288,3.175,3.175,0,0,0-1.816,1.815,4.534,4.534,0,0,0-.288,1.506c-.03.662-.037.874-.037,2.559s.007,1.9.037,2.559a4.561,4.561,0,0,0,.288,1.506,3.176,3.176,0,0,0,1.815,1.816,4.558,4.558,0,0,0,1.507.288c.662.03.873.037,2.559.037s1.9-.007,2.559-.037a4.561,4.561,0,0,0,1.507-.288,3.18,3.18,0,0,0,1.815-1.816,4.6,4.6,0,0,0,.288-1.506c.03-.662.037-.873.037-2.559s-.008-1.9-.037-2.559a4.6,4.6,0,0,0-.288-1.506,3.175,3.175,0,0,0-1.815-1.815,4.569,4.569,0,0,0-1.508-.288c-.662-.03-.873-.037-2.559-.037Zm-.557,1.118h.557c1.657,0,1.854.006,2.508.036a3.436,3.436,0,0,1,1.152.214,2.057,2.057,0,0,1,1.178,1.178,3.429,3.429,0,0,1,.214,1.152c.03.654.036.851.036,2.507s-.006,1.853-.036,2.507a3.433,3.433,0,0,1-.214,1.152,2.058,2.058,0,0,1-1.178,1.177,3.424,3.424,0,0,1-1.152.214c-.654.03-.851.036-2.508.036s-1.854-.006-2.508-.036a3.443,3.443,0,0,1-1.152-.214,2.056,2.056,0,0,1-1.178-1.178,3.429,3.429,0,0,1-.214-1.152c-.03-.654-.036-.851-.036-2.508s.006-1.853.036-2.507a3.436,3.436,0,0,1,.214-1.152,2.057,2.057,0,0,1,1.178-1.178,3.429,3.429,0,0,1,1.152-.214c.573-.026.794-.034,1.951-.035Zm3.87,1.031a.745.745,0,1,0,.745.745.745.745,0,0,0-.745-.745Zm-3.313.87a3.187,3.187,0,1,0,3.187,3.187,3.187,3.187,0,0,0-3.187-3.187Zm0,1.118a2.069,2.069,0,1,1-2.069,2.069A2.069,2.069,0,0,1,24.207,22.138Z" transform="translate(-14.801 -14.802)" fill="#fff"/>
    </g>
  </g>
</svg>
