<svg xmlns="http://www.w3.org/2000/svg" xmlns:xlink="http://www.w3.org/1999/xlink" width="62" height="62" viewBox="0 0 62 62">
  <defs>
    <filter id="Ellipse_5" x="0" y="0" width="62" height="62" filterUnits="userSpaceOnUse">
      <feOffset dy="3" input="SourceAlpha"/>
      <feGaussianBlur stdDeviation="3" result="blur"/>
      <feFlood flood-opacity="0.22"/>
      <feComposite operator="in" in2="blur"/>
      <feComposite in="SourceGraphic"/>
    </filter>
  </defs>
  <g id="Group_19" data-name="Group 19" transform="translate(-173 -955)">
    <g transform="matrix(1, 0, 0, 1, 173, 955)" filter="url(#Ellipse_5)">
      <circle id="Ellipse_5-2" data-name="Ellipse 5" cx="22" cy="22" r="22" transform="translate(9 6)" fill="#fff"/>
    </g>
    <path id="linkedin-in" d="M3.762,16.818H.278V5.6H3.762ZM2.018,4.065A2.028,2.028,0,1,1,4.036,2.028,2.035,2.035,0,0,1,2.018,4.065ZM16.8,16.818H13.327V11.355c0-1.3-.026-2.971-1.812-2.971C9.7,8.384,9.426,9.8,9.426,11.262v5.557H5.945V5.6H9.287V7.127h.049a3.662,3.662,0,0,1,3.3-1.812c3.527,0,4.175,2.322,4.175,5.339v6.164Z" transform="translate(195.596 974.586)" fill="#116df6"/>
  </g>
</svg>
