<svg xmlns="http://www.w3.org/2000/svg" width="191" height="32" viewBox="0 0 191 32">
  <g id="Group_2" data-name="Group 2" transform="translate(-120 -60)">
    <g id="Group_1" data-name="Group 1" transform="translate(23.378 23.378)">
      <circle id="Ellipse_2" data-name="Ellipse 2" cx="16" cy="16" r="16" transform="translate(96.622 36.622)" fill="#fff"/>
      <path id="car" d="M4.161,34.628l-.8,2.3H12.4l-.8-2.3a.985.985,0,0,0-.929-.659H5.09A.985.985,0,0,0,4.161,34.628ZM1.219,37.072,2.3,33.979A2.955,2.955,0,0,1,5.09,32h5.576a2.955,2.955,0,0,1,2.788,1.979l1.083,3.093a1.973,1.973,0,0,1,1.219,1.822V44.8a.984.984,0,0,1-.985.985h-.985A.984.984,0,0,1,12.8,44.8V43.325H2.954V44.8a.984.984,0,0,1-.985.985H.985A.984.984,0,0,1,0,44.8V38.894A1.973,1.973,0,0,1,1.219,37.072Zm2.72,2.807a.985.985,0,1,0-.985.985A.985.985,0,0,0,3.939,39.878Zm8.863.985a.985.985,0,1,0-.985-.985A.985.985,0,0,0,12.8,40.863Z" transform="translate(104.744 13.728)" fill="#101235"/>
    </g>
    <text id="RICH-K_ONLINE" data-name="RICH-K ONLINE" transform="translate(159 83)" fill="#fff" font-size="20" font-family="Poppins-SemiBold, Poppins" font-weight="600"><tspan x="0" y="0">RICH-K ONLINE</tspan></text>
  </g>
</svg>
