<svg xmlns="http://www.w3.org/2000/svg" width="43.712" height="38.855" viewBox="0 0 43.712 38.855">
  <path id="basket-shopping" d="M19.223,2.665A1.823,1.823,0,1,0,15.99.981L8.924,14.572h-6.5a2.428,2.428,0,0,0,0,4.857L6.367,35.176a4.855,4.855,0,0,0,4.713,3.681H32.632a4.855,4.855,0,0,0,4.713-3.681l3.939-15.747a2.428,2.428,0,1,0,0-4.857h-6.5L27.722.981a1.823,1.823,0,0,0-3.233,1.685l6.193,11.907H13.03ZM14.571,23.072v7.285a1.214,1.214,0,0,1-2.428,0V23.072a1.214,1.214,0,0,1,2.428,0Zm7.285-1.214a1.218,1.218,0,0,1,1.214,1.214v7.285a1.214,1.214,0,0,1-2.428,0V23.072A1.218,1.218,0,0,1,21.856,21.858Zm9.714,1.214v7.285a1.214,1.214,0,0,1-2.428,0V23.072a1.214,1.214,0,0,1,2.428,0Z" transform="translate(0 -0.002)" fill="#f5f6fa"/>
</svg>
