<svg xmlns="http://www.w3.org/2000/svg" width="29.402" height="43.419" viewBox="0 0 29.402 43.419">
  <path id="person-running" d="M22.617,4.07C22.617,1.822,21.1,0,19.225,0s-3.393,1.822-3.393,4.07,1.519,4.07,3.393,4.07S22.617,6.318,22.617,4.07ZM8.884,14.881a3.464,3.464,0,0,1,2.65-1.314,3.02,3.02,0,0,1,.4.025L9.725,21.538a6,6,0,0,0,1.894,6.317l6.093,4.57-1.8,7.53a2.825,2.825,0,0,0,1.555,3.358,2.24,2.24,0,0,0,2.8-1.865L22.3,32.934a4.479,4.479,0,0,0-1.463-4.57l-4.015-3.01,2.184-6.987.36,1.043c1.06,3.036,3.527,5.011,6.269,5.011h1.505A2.516,2.516,0,0,0,29.4,21.707a2.516,2.516,0,0,0-2.262-2.713H25.635a2.294,2.294,0,0,1-2.085-1.67L23.1,16.052a9.874,9.874,0,0,0-5.69-6.2L13.973,8.581a7.043,7.043,0,0,0-2.431-.441A7.623,7.623,0,0,0,5.7,11.049l-1.64,1.959a3.115,3.115,0,0,0,0,3.841,2.009,2.009,0,0,0,3.2,0L8.891,14.89ZM6.446,29.848H2.262A2.516,2.516,0,0,0,0,32.561a2.516,2.516,0,0,0,2.262,2.713H7.181a3.431,3.431,0,0,0,3.1-2.417l.813-2.2-.671-.509a7.9,7.9,0,0,1-2.679-3.807Z" fill="#f5f6fa"/>
</svg>
