<svg xmlns="http://www.w3.org/2000/svg" width="40" height="39.999" viewBox="0 0 40 39.999">
  <path id="cable-car" d="M22.495,0a2.5,2.5,0,1,1-2.5,2.5A2.5,2.5,0,0,1,22.495,0Zm-10,4.375a2.5,2.5,0,1,1,2.5,2.5A2.5,2.5,0,0,1,12.5,4.375ZM2.5,22.5a5,5,0,0,1,5-5H18.12V12.3L2.253,15.586a1.875,1.875,0,1,1-.766-3.672l18.125-3.75,18.125-3.75A1.875,1.875,0,0,1,38.5,8.086L21.87,11.523V17.5H32.495a5,5,0,0,1,5,5V35a5,5,0,0,1-5,5H7.5a5,5,0,0,1-5-5Zm5,0a1.254,1.254,0,0,0-1.25,1.25v5A1.254,1.254,0,0,0,7.5,30h5a1.254,1.254,0,0,0,1.25-1.25v-5A1.254,1.254,0,0,0,12.5,22.5Zm8.75,1.25v5A1.254,1.254,0,0,0,17.495,30h5a1.254,1.254,0,0,0,1.25-1.25v-5a1.254,1.254,0,0,0-1.25-1.25h-5A1.254,1.254,0,0,0,16.245,23.75Zm11.25-1.25a1.254,1.254,0,0,0-1.25,1.25v5A1.254,1.254,0,0,0,27.495,30h5a1.254,1.254,0,0,0,1.25-1.25v-5a1.254,1.254,0,0,0-1.25-1.25Z" transform="translate(0.005)" fill="#101235"/>
</svg>
