<svg xmlns="http://www.w3.org/2000/svg" xmlns:xlink="http://www.w3.org/1999/xlink" width="458.453" height="52.646" viewBox="0 0 458.453 52.646">
  <defs>
    <linearGradient id="linear-gradient" x1="0.841" y1="-0.278" x2="0.14" y2="0.111" gradientUnits="objectBoundingBox">
      <stop offset="0" stop-color="#f1bb5e"/>
      <stop offset="0.608" stop-color="#d639bc"/>
      <stop offset="1" stop-color="#3c36e2"/>
    </linearGradient>
  </defs>
  <path id="Path_2" data-name="Path 2" d="M34.724-11.382Q28.22.831,20.56.831a7.908,7.908,0,0,1-6.432-2.945A11.875,11.875,0,0,1,11.707-9.9q0-5.637,4.029-17.127t4.029-16.26a5.242,5.242,0,0,0-1.21-3.541,3.817,3.817,0,0,0-3.017-1.409q-2.782,0-5.528,3.4A10.97,10.97,0,0,0,7.263-37.9,8.924,8.924,0,0,0,9.72-32.267a3.779,3.779,0,0,1,1.012,1.7,6.335,6.335,0,0,1-1.554,2.421Q7.624-26.269,6.5-26.269q-1.192,0-2.71-1.734A7.65,7.65,0,0,1,2.276-33.17a19.018,19.018,0,0,1,4.9-12.683q4.9-5.709,10.822-5.709A9.44,9.44,0,0,1,25.51-47.88a13.829,13.829,0,0,1,3.071,9.168q-.053,5.776-3.741,16.35T21.174-8.206a3.959,3.959,0,0,0,.867,2.695,2.915,2.915,0,0,0,2.313.995q3.144,0,6.251-5.131t5.673-14.706l3.4-12.719a90.379,90.379,0,0,1,4.442-13.116q.252-.614,3.376-.958t4.532-.343q1.408,0,1.408.575L46.808-25.7Q43.974-14.6,43.974-9.468a6.026,6.026,0,0,0,.939,3.56,2.951,2.951,0,0,0,2.529,1.319q2.349,0,6.414-3.848A31.815,31.815,0,0,0,60.7-18.265,28.71,28.71,0,0,0,63.485-30.5a29.878,29.878,0,0,0-3.252-13.3,8.773,8.773,0,0,1-.9-2.385q0-1.554,2.981-3.433t4.282-1.879q1.229,0,2.475,3.27a19.059,19.059,0,0,1,1.247,6.847A47.532,47.532,0,0,1,65.87-21.915,51.777,51.777,0,0,1,54.813-5.564Q48.2.831,42.854.831a7.056,7.056,0,0,1-6.016-3.053Q34.615-5.275,34.724-11.382Zm63.991,3.4a44.633,44.633,0,0,1-8.238,6.667A15.582,15.582,0,0,1,82.419.831a10.491,10.491,0,0,1-7.931-3.144,11.45,11.45,0,0,1-3.017-8.274,20.761,20.761,0,0,1,5.312-13.857q5.312-6.2,11.779-6.2a7.989,7.989,0,0,1,5.384,1.734,5.706,5.706,0,0,1,2.023,4.553q0,7.479-15.9,12.141,1.445,7.046,7.552,7.046A8.808,8.808,0,0,0,92.175-6.45a39.484,39.484,0,0,0,6.54-5.691ZM79.781-14.67q9.25-2.6,9.25-9.611,0-3.469-2.529-3.469-2.385,0-4.553,3.631A18.259,18.259,0,0,0,79.781-14.67Zm42.854,6.685a51.969,51.969,0,0,1-8.618,6.667,14.12,14.12,0,0,1-7.064,2.15,7.554,7.554,0,0,1-6.233-3,12.653,12.653,0,0,1-2.367-8.058q0-7.588,3.288-18.211a115.911,115.911,0,0,1,7.985-19.584l9.178-3.4a2.294,2.294,0,0,1,.65-.145q1.048,0,1.716,1.536a10.553,10.553,0,0,1,.668,4.137,31.955,31.955,0,0,1-3.4,14.272A64.419,64.419,0,0,1,107.82-16.874q-.289,3.758-.289,5.167a9.316,9.316,0,0,0,1.156,4.986,3.5,3.5,0,0,0,3.071,1.843,7.791,7.791,0,0,0,4.155-1.409,49.42,49.42,0,0,0,6.721-5.854ZM108.8-22.113a44.071,44.071,0,0,0,7.443-11.434q2.854-6.332,2.854-10.891a4.942,4.942,0,0,0-.4-2.153q-.4-.814-1.012-.814-1.337,0-3.884,6.658A124.878,124.878,0,0,0,108.8-22.113ZM149.662-7.985A40.817,40.817,0,0,1,141.189-1.3a16.365,16.365,0,0,1-8.04,2.132,10.5,10.5,0,0,1-7.75-3.053,10.5,10.5,0,0,1-3.053-7.75,21.346,21.346,0,0,1,5.619-14.218q5.619-6.522,12.159-6.522a7.618,7.618,0,0,1,5.239,1.789,5.907,5.907,0,0,1,2.023,4.643,2.516,2.516,0,0,1-.379,1.518,3.913,3.913,0,0,1-1.427,1.012l-4.191,1.987a3.017,3.017,0,0,1-1.12.361q-.506,0-.506-.723,0-.289.217-1.9t.217-1.969a4.456,4.456,0,0,0-.668-2.565,2.068,2.068,0,0,0-1.789-.976q-2.638,0-4.824,3.9a17.874,17.874,0,0,0-2.186,8.889,10.649,10.649,0,0,0,2.06,6.865,6.686,6.686,0,0,0,5.492,2.565,9.931,9.931,0,0,0,5.51-1.68,34.341,34.341,0,0,0,5.872-5.149Zm32.447,0a12.114,12.114,0,0,1-3.577,2.294,8.215,8.215,0,0,1-2.746.668,8.321,8.321,0,0,1-5.167-2.023Q165.416.831,158.7.831A8.4,8.4,0,0,1,151.9-2.312a12.675,12.675,0,0,1-2.6-8.347,19.389,19.389,0,0,1,5.854-14.146,19,19,0,0,1,13.983-5.908,11.251,11.251,0,0,1,4.5.668,3.1,3.1,0,0,1,1.752,1.572,6.8,6.8,0,0,1,.325,2.276q0,6.757-3.686,16.585a5.663,5.663,0,0,0,3.866,1.7q2.421,0,6.215-4.228Zm-11.924-20.2a4.352,4.352,0,0,0-1.554-.217q-4.7,0-7.353,4.914A23.806,23.806,0,0,0,158.623-12a11.525,11.525,0,0,0,1.156,5.673A3.56,3.56,0,0,0,163-4.3q2.565,0,5.564-4.733a14.453,14.453,0,0,1-3.4-9.178Q165.163-23.992,170.186-28.184ZM235.3-7.985a61.6,61.6,0,0,1-7.732,6.612,11.086,11.086,0,0,1-6.251,2.2,4.688,4.688,0,0,1-3.776-1.644,6.629,6.629,0,0,1-1.391-4.426,33.44,33.44,0,0,1,1.951-9.9q1.951-6,1.951-7.3a1.038,1.038,0,0,0-1.192-1.156,2.012,2.012,0,0,0-.867.253,8.9,8.9,0,0,0-1.229.723,18.908,18.908,0,0,0-1.481,1.229q-.794.723-1.662,1.662-.939.94-1.879,2.06a8.253,8.253,0,0,0-1.878,3.144l-1.2,5.169-2.184,8.53L197.321.831l3.5-14.887q.4-1.626.939-4.77a36.378,36.378,0,0,0,.542-3.758q0-1.229-.831-1.229a1.714,1.714,0,0,0-.723.253,7.446,7.446,0,0,0-1.229.759q-.795.578-1.7,1.373-.976.867-2.1,1.987-1.192,1.192-2.457,2.638a8.925,8.925,0,0,0-2.168,4.553q-.578,3.107-.795,5.564-.253,2.457-.289,5.492L182,.723q-.289-4.155-.289-6.937a42.877,42.877,0,0,1,1.373-11.508,73.857,73.857,0,0,1,4.48-11.436l8.744-1.7a81.542,81.542,0,0,0-3.649,11.382q9.72-11.31,14.887-11.31A3.67,3.67,0,0,1,210.6-29.25a6.455,6.455,0,0,1,1.174,4.029q0,1.156-.361,4.264a81.205,81.205,0,0,1,8.766-7.967,8.739,8.739,0,0,1,4.9-1.861,3.973,3.973,0,0,1,3.253,1.59,6.3,6.3,0,0,1,1.265,4.048,31.6,31.6,0,0,1-2.127,9.939q-2.127,6.072-2.127,8.021,0,2.021,1.479,2.021a5.085,5.085,0,0,0,2.615-1.247,56.275,56.275,0,0,0,5.862-5.727Zm27.027,0a44.633,44.633,0,0,1-8.238,6.667,15.582,15.582,0,0,1-8.058,2.15A10.491,10.491,0,0,1,238.1-2.312a11.45,11.45,0,0,1-3.017-8.274,20.761,20.761,0,0,1,5.312-13.857q5.312-6.2,11.779-6.2a7.989,7.989,0,0,1,5.384,1.734,5.706,5.706,0,0,1,2.023,4.553q0,7.479-15.9,12.141,1.445,7.046,7.552,7.046a8.808,8.808,0,0,0,4.553-1.283,39.484,39.484,0,0,0,6.54-5.691ZM243.391-14.67q9.25-2.6,9.25-9.611,0-3.469-2.529-3.469-2.385,0-4.553,3.631A18.259,18.259,0,0,0,243.391-14.67Zm75.626-13.514a6.035,6.035,0,0,0,5.637-3.053,13.056,13.056,0,0,0,1.771-6.667,10.2,10.2,0,0,0-3.306-7.967q-3.306-2.981-8.907-2.981A22.441,22.441,0,0,0,300.7-44.5q-6,4.354-6,9.629,0,3.144,3.4,4.589.867.361.867.687v1.12q0,.795-2.873,1.987a13.34,13.34,0,0,1-3.776,1.192q-1.409,0-2.854-2.294a8.8,8.8,0,0,1-1.445-4.751q0-4.3,3.523-9a24.564,24.564,0,0,1,9.937-7.552A35.883,35.883,0,0,1,316.2-51.742q8.889,0,14.4,3.722t5.51,9.539q0,8.672-12.285,11.852,9.647,3,9.647,11.815a14.729,14.729,0,0,1-4.824,11.039A16.129,16.129,0,0,1,317.1.831a9.476,9.476,0,0,1-4.95-1.192,3.41,3.41,0,0,1-1.987-2.891,6.173,6.173,0,0,1,1.265-3.035Q312.693-8.2,313.777-8.2q1.481,0,1.771,3.469.217,2.746,1.7,2.746,2.421,0,4.282-5.384a32.986,32.986,0,0,0,1.861-10.84q0-6.612-4.733-7.335Zm1.192-13.983a12.572,12.572,0,0,0-3.136,4.284q-1.057,2.4-1.876,9.413a88,88,0,0,1-2.058,11.76,25.5,25.5,0,0,1-4.293,8.851,21.365,21.365,0,0,1-7.732,6.431A22.263,22.263,0,0,1,291.05.9Q286.244.9,283.7-1.12a6.912,6.912,0,0,1-2.547-5.745,9.785,9.785,0,0,1,.217-2.24,17.628,17.628,0,0,1,4.047-2.728,9.419,9.419,0,0,1,3.144-1.174q1.3,0,1.3,1.987,0,.325-.289,2.258t-.289,2.331q0,4.444,3.83,4.444,3.866,0,6.721-5.041t4.1-15.049Q305.178-32.086,307.4-35.9a16.124,16.124,0,0,1,5.619-5.854q3.4-2.042,5.275-2.042Q319.233-43.793,320.209-42.166ZM375.637-7.985a76.05,76.05,0,0,1-8.274,7.154,8.656,8.656,0,0,1-4.77,1.662q-5.709,0-5.384-10.081a37.289,37.289,0,0,1-6.667,7.624A9.966,9.966,0,0,1,344.237.831a6.566,6.566,0,0,1-5.4-2.981,11.9,11.9,0,0,1-2.222-7.317A19.622,19.622,0,0,1,339.594-19.8a24.5,24.5,0,0,1,7.642-7.949q4.661-3.035,8.238-3.035A6.39,6.39,0,0,1,361.8-26.63l7.385-4.083h2.027l-3.187,10.587q-2.463,7.986-2.463,10.949,0,3.106,2.2,3.106a4.93,4.93,0,0,0,3.106-1.5q1.7-1.5,4.767-4.571ZM349.188-6Q352.8-6,356-12.159a24.934,24.934,0,0,0,3.2-11.364,4.963,4.963,0,0,0-.9-3.162,2.932,2.932,0,0,0-2.421-1.138q-3.613,0-6.847,6.143a24.563,24.563,0,0,0-3.234,11.31,4.946,4.946,0,0,0,.958,3.162A2.978,2.978,0,0,0,349.188-6Zm53.44-1.987A40.818,40.818,0,0,1,394.155-1.3a16.365,16.365,0,0,1-8.04,2.132,10.5,10.5,0,0,1-7.75-3.053,10.5,10.5,0,0,1-3.053-7.75,21.346,21.346,0,0,1,5.619-14.218q5.619-6.522,12.159-6.522a7.618,7.618,0,0,1,5.239,1.789,5.907,5.907,0,0,1,2.023,4.643,2.516,2.516,0,0,1-.379,1.518,3.913,3.913,0,0,1-1.427,1.012l-4.191,1.987a3.017,3.017,0,0,1-1.12.361q-.506,0-.506-.723,0-.289.217-1.9t.217-1.969a4.456,4.456,0,0,0-.668-2.565,2.068,2.068,0,0,0-1.789-.976q-2.638,0-4.824,3.9a17.873,17.873,0,0,0-2.186,8.889,10.649,10.649,0,0,0,2.06,6.865,6.686,6.686,0,0,0,5.492,2.565,9.931,9.931,0,0,0,5.51-1.68,34.341,34.341,0,0,0,5.872-5.149Zm35.482-.072Q429.908.9,424.488.9a5.85,5.85,0,0,1-4.372-1.825,6.21,6.21,0,0,1-1.771-4.5,24.683,24.683,0,0,1,.434-3.794q.434-2.529.434-2.854,0-1.662-1.879-1.716t-1.879-1.463a2.285,2.285,0,0,1,.524-1.716,2.946,2.946,0,0,1,1.969-.488q3.975-.108,5.926-1.644a4.521,4.521,0,0,0,1.951-3.631,3.134,3.134,0,0,0-1.066-2.439,3.928,3.928,0,0,0-2.728-.958,6.844,6.844,0,0,0-1.734.217,7.007,7.007,0,0,0-1.662.65,13.213,13.213,0,0,0-1.734,1.192,22.094,22.094,0,0,0-1.843,1.843q-.939,1.048-2.06,2.493-.578.759-1.445,7.118-.434,3.288-.578,6.07-.145,2.6-.036,5.89l-8.2,1.373A40.7,40.7,0,0,1,402.267-6a72.409,72.409,0,0,1,2.927-20.7,80.412,80.412,0,0,1,9.575-20.271q5.167-2.1,8.925-3.27a33.922,33.922,0,0,1,4.191-1.174q.867,0,1.7,1.734a8.343,8.343,0,0,1,.831,3.649,14.586,14.586,0,0,1-2.132,7.028,64.083,64.083,0,0,1-6.612,9.2,18.787,18.787,0,0,1,5.095-.9A8.483,8.483,0,0,1,432.257-29a5.355,5.355,0,0,1,2.132,4.354q0,6-10.8,8.816,4.228.976,4.228,4.95L427.6-7.624q0,2.2,2.06,2.2a5.673,5.673,0,0,0,3.288-1.409,37.983,37.983,0,0,0,5.167-5.384Zm-23.7-17.416,2.385-2.638q10.587-11.924,10.587-16.8,0-2.24-1.951-2.24-2.24,0-5.149,5.275T414.407-25.474Zm34.109,11.6a13.448,13.448,0,0,1-2.132-7.271,23.775,23.775,0,0,1,1.969-8.211,64.83,64.83,0,0,0,2.547-7.415,21.946,21.946,0,0,0,.578-5.172,19.454,19.454,0,0,0-.325-3.835q-.325-1.592-.325-1.808,0-.65,3.7-2.2a22.557,22.557,0,0,1,4.282-1.554q.687,0,1.3,2.134a17.387,17.387,0,0,1,.614,4.81,22.432,22.432,0,0,1-1.3,7.4A40.822,40.822,0,0,1,455-28.451a61.8,61.8,0,0,0-4.173,7.125,10.568,10.568,0,0,0-1.048,4.34q0,.145.145,1.121t.145,1.158Q450.07-14.381,448.517-13.875Zm3.5,6.215q.217,0,.217.36a18.927,18.927,0,0,1-1.12,3.113A10.965,10.965,0,0,1,448.77-.3,4.873,4.873,0,0,1,445.337.831,9.683,9.683,0,0,1,441.109-.2q-2.132-1.026-2.132-1.422a3.225,3.225,0,0,1,.361-.757A18.367,18.367,0,0,0,442.229-9q.108-.864.361-.864.434,0,.976.65a7.384,7.384,0,0,0,5.095,2.276,6.555,6.555,0,0,0,2.186-.361A7.56,7.56,0,0,1,452.021-7.66Z" transform="translate(-2.276 51.742)" fill="url(#linear-gradient)"/>
</svg>
